<svg height="702" width="720" xmlns="http://www.w3.org/2000/svg">
<rect height="702" fill="#555" width="720"></rect>
<text fill="#7f7" font-family="Courier New" font-size="12" xml:space="preserve">
<tspan x="10" y="26">7 megabytes installed</tspan>
<tspan x="10" y="42"></tspan>
<tspan x="10" y="58">node_modules</tspan>
<tspan x="10" y="74">└─┬ nativescript-fabric@0.3.1 </tspan>
<tspan x="10" y="90">  ├── format@0.2.2 </tspan>
<tspan x="10" y="106">  ├─┬ fs-extra@2.1.2 </tspan>
<tspan x="10" y="122">  │ ├── graceful-fs@4.1.11 </tspan>
<tspan x="10" y="138">  │ └── jsonfile@2.4.0 </tspan>
<tspan x="10" y="154">  ├─┬ nativescript-hook@0.2.1 </tspan>
<tspan x="10" y="170">  │ ├─┬ glob@6.0.4 </tspan>
<tspan x="10" y="186">  │ │ ├─┬ inflight@1.0.6 </tspan>
<tspan x="10" y="202">  │ │ │ └── wrappy@1.0.2 </tspan>
<tspan x="10" y="218">  │ │ ├── inherits@2.0.3 </tspan>
<tspan x="10" y="234">  │ │ ├─┬ minimatch@3.0.3 </tspan>
<tspan x="10" y="250">  │ │ │ └─┬ brace-expansion@1.1.7 </tspan>
<tspan x="10" y="266">  │ │ │   ├── balanced-match@0.4.2 </tspan>
<tspan x="10" y="282">  │ │ │   └── concat-map@0.0.1 </tspan>
<tspan x="10" y="298">  │ │ ├── once@1.4.0 </tspan>
<tspan x="10" y="314">  │ │ └── path-is-absolute@1.0.1 </tspan>
<tspan x="10" y="330">  │ └─┬ mkdirp@0.5.1 </tspan>
<tspan x="10" y="346">  │   └── minimist@0.0.8 </tspan>
<tspan x="10" y="362">  ├─┬ simple-plist@0.2.1 </tspan>
<tspan x="10" y="378">  │ ├─┬ bplist-creator@0.0.7 </tspan>
<tspan x="10" y="394">  │ │ └── stream-buffers@2.2.0 </tspan>
<tspan x="10" y="410">  │ ├─┬ bplist-parser@0.1.1 </tspan>
<tspan x="10" y="426">  │ │ └── big-integer@1.6.21 </tspan>
<tspan x="10" y="442">  │ └─┬ plist@2.0.1 </tspan>
<tspan x="10" y="458">  │   ├── base64-js@1.1.2 </tspan>
<tspan x="10" y="474">  │   └── xmlbuilder@8.2.2 </tspan>
<tspan x="10" y="490">  ├─┬ xcode@0.9.1 </tspan>
<tspan x="10" y="506">  │ ├── node-uuid@1.4.7 </tspan>
<tspan x="10" y="522">  │ ├── pegjs@0.9.0 </tspan>
<tspan x="10" y="538">  │ └─┬ simple-plist@0.1.4 </tspan>
<tspan x="10" y="554">  │   ├─┬ bplist-creator@0.0.4 </tspan>
<tspan x="10" y="570">  │   │ └── stream-buffers@0.2.6 </tspan>
<tspan x="10" y="586">  │   ├── bplist-parser@0.0.6 </tspan>
<tspan x="10" y="602">  │   └─┬ plist@1.2.0 </tspan>
<tspan x="10" y="618">  │     ├── base64-js@0.0.8 </tspan>
<tspan x="10" y="634">  │     ├── util-deprecate@1.0.2 </tspan>
<tspan x="10" y="650">  │     └─┬ xmlbuilder@4.0.0 </tspan>
<tspan x="10" y="666">  │       └── lodash@3.10.1 </tspan>
<tspan x="10" y="682">  └── xmldom@0.1.22</tspan>
</text>
</svg>
